<svg width="16" height="16" viewBox="0 0 16 16" fill="none" xmlns="http://www.w3.org/2000/svg">
<path d="M8 15.5C8.83464 15.5 9.51125 15.101 9.51125 14.6088C9.51125 14.1166 8.83464 13.7175 8 13.7175C7.16536 13.7175 6.48875 14.1166 6.48875 14.6088C6.48875 15.101 7.16536 15.5 8 15.5Z" fill="#424242"/>
<path d="M7.99999 0.5C5.36499 0.5 3.22749 2.45875 3.22749 4.87375C3.22749 5.50375 3.41749 6.1775 3.69624 6.77125C4.08749 7.60625 4.51374 8.22375 4.63874 8.45125C4.98624 9.08375 4.93624 9.75 5.03249 10.1675C5.21374 10.9475 5.75624 11.23 7.99874 11.23C10.2412 11.23 10.7237 10.9613 10.925 10.2425C11.0625 9.75375 10.9287 9.22 11.275 8.58875C11.4 8.36125 11.9087 7.6075 12.3012 6.77125C12.58 6.1775 12.77 5.50375 12.77 4.87375C12.7725 2.45875 10.635 0.5 7.99999 0.5Z" fill="#FFD600"/>
<path d="M8.00001 11.3237C9.51465 11.3237 10.7425 11.0741 10.7425 10.7662C10.7425 10.4583 9.51465 10.2087 8.00001 10.2087C6.48537 10.2087 5.25751 10.4583 5.25751 10.7662C5.25751 11.0741 6.48537 11.3237 8.00001 11.3237Z" fill="#B26500"/>
<path d="M8.00001 11.3237C9.51465 11.3237 10.7425 11.0741 10.7425 10.7662C10.7425 10.4583 9.51465 10.2087 8.00001 10.2087C6.48537 10.2087 5.25751 10.4583 5.25751 10.7662C5.25751 11.0741 6.48537 11.3237 8.00001 11.3237Z" fill="#B26500"/>
<path d="M8 11.0238C9.10388 11.0238 9.99875 10.9085 9.99875 10.7663C9.99875 10.6241 9.10388 10.5088 8 10.5088C6.89612 10.5088 6.00125 10.6241 6.00125 10.7663C6.00125 10.9085 6.89612 11.0238 8 11.0238Z" fill="#FFA000"/>
<path d="M6.6625 7.09625C6.585 7.29125 6.38375 7.6925 6.48875 7.8725C6.7325 8.29125 7.31375 8.44125 7.31375 8.82625C7.31375 9.41375 6.88625 11.3175 6.88625 11.3175M9.25375 7.02625C9.25375 7.02625 9.53375 7.62625 9.415 7.895C9.32625 8.095 8.7925 8.41749 8.72375 8.47124C8.405 8.72124 8.82875 11.3187 8.82875 11.3187" stroke="#B26500" stroke-width="0.25" stroke-miterlimit="10"/>
<path d="M6.6625 7.09627C7.0925 6.24627 7.31375 4.30627 6.7675 4.40502C5.84625 4.57127 6.98125 7.75877 7.54 7.39252C8.09875 7.02627 8.79125 4.41127 7.94125 4.40127C7.09125 4.39127 7.99875 7.73377 8.57625 7.36252C9.0325 7.06877 10.1463 4.40502 9.23125 4.40502C8.4525 4.40502 9.255 7.02627 9.255 7.02627" stroke="white" stroke-width="0.25" stroke-miterlimit="10"/>
<path d="M10.7362 10.8824C10.7362 10.8824 10.0162 11.2299 8 11.2299C5.98375 11.2299 5.26375 10.8824 5.26375 10.8824C5.26375 10.8824 5.21875 11.5249 5.3675 11.8162C5.54625 12.1662 5.68375 12.2874 5.68375 12.2874L5.75875 12.6437L5.72875 12.7374C5.69 12.8599 5.7175 12.9949 5.80375 13.0912L5.86875 13.1637L5.94125 13.5062L5.91625 13.5749C5.86875 13.7062 5.90125 13.8524 5.99875 13.9524L6.04625 14.0012L6.105 14.2812C6.105 14.2812 6.4025 14.9162 8 14.9162C9.5975 14.9162 9.895 14.2812 9.895 14.2812L9.9 14.2574L9.9325 14.2249C9.9975 14.1612 10.0187 14.0662 9.9875 13.9812L9.96875 13.9324L10.0462 13.5624L10.1825 13.4187C10.25 13.3474 10.265 13.2424 10.2212 13.1549L10.1587 13.0312L10.2375 12.6599L10.2875 12.6212C10.3612 12.5399 10.3625 12.4174 10.33 12.3337C10.305 12.2674 10.325 12.1924 10.3762 12.1437C10.455 12.0687 10.5563 11.9549 10.6312 11.8137C10.785 11.5274 10.7362 10.8824 10.7362 10.8824Z" fill="#82AEC0"/>
<path d="M5.68375 12.2875L5.75125 12.6463C6.47875 12.6425 7.45 12.6788 9.31375 12.3825C9.65 12.3063 10.0537 12.155 9.6075 12.2175C9.6075 12.2163 7.89625 12.38 5.68375 12.2875ZM5.93375 13.5088C6.73875 13.495 8.38375 13.415 10.1512 13.0313L10.23 12.66C8.38125 13.08 6.6425 13.155 5.86125 13.165L5.93375 13.5088ZM10.0387 13.5613C8.4025 13.9163 6.87125 14.0075 6.0425 14.0275L6.09625 14.2825C6.09625 14.2825 6.1225 15.0738 7.99125 15.0738C9.86 15.0738 9.88625 14.2825 9.88625 14.2825C9.88625 14.2825 9.08875 14.51 8.1075 14.3988C8.09715 14.3989 8.0869 14.3969 8.07731 14.393C8.06773 14.3891 8.059 14.3834 8.05163 14.3762C8.03674 14.3615 8.02829 14.3415 8.02812 14.3207C8.02796 14.2998 8.03609 14.2797 8.05075 14.2648C8.0654 14.2499 8.08536 14.2415 8.10625 14.2413C8.6925 14.1638 9.3925 14.0488 9.96125 13.9313L10.0387 13.5613Z" fill="#2F7889"/>
<path d="M5.27251 10.8824C5.27251 10.8824 6.08001 11.2299 7.99251 11.2299C9.90501 11.2299 10.7275 10.8824 10.7275 10.8824" stroke="#82AEC0" stroke-width="0.499625" stroke-miterlimit="10" stroke-linecap="round"/>
<path d="M6.23501 1.28995C6.72376 1.16995 7.23501 1.22995 7.58501 1.65495C7.68376 1.77495 7.76001 1.91745 7.77751 2.07245C7.81251 2.3712 7.62751 2.6537 7.40751 2.8612C6.78001 3.4537 5.88876 3.7412 5.48376 4.5587C5.38876 4.74995 5.31376 4.9562 5.16876 5.11245C5.02376 5.2687 4.78251 5.3637 4.59376 5.2637C4.49376 5.2112 4.42501 5.11245 4.36876 5.0137C4.01376 4.3812 4.04001 3.57495 4.35251 2.91995C4.69626 2.20245 5.45001 1.48245 6.23501 1.28995Z" fill="#FFFF8D"/>
<path d="M5.80625 11.4913C5.69625 11.4413 5.74 11.2763 5.86 11.285C6.2625 11.3163 6.9475 11.355 7.85375 11.355C8.80875 11.355 9.64875 11.2838 10.1388 11.2313C10.26 11.2188 10.3062 11.385 10.195 11.4363C9.8175 11.6138 9.12625 11.8163 7.94125 11.8163C6.785 11.8163 6.1475 11.645 5.80625 11.4913Z" fill="#FFD600"/>
<path d="M6.49249 12.7537C6.40874 12.7837 6.32249 12.825 6.27999 12.9025C6.26499 12.9312 6.25624 12.9637 6.26249 12.9962C6.27249 13.0437 6.31624 13.0775 6.35999 13.0987C6.44749 13.1412 6.54624 13.1525 6.64249 13.1537C6.84124 13.1562 7.03874 13.1187 7.23499 13.0812C7.29374 13.07 7.35374 13.0587 7.40624 13.03C7.45874 13.0012 7.50374 12.9525 7.51249 12.8937C7.52499 12.815 7.46874 12.7387 7.39999 12.7012C7.16249 12.57 6.73249 12.6675 6.49249 12.7537ZM6.67874 13.5775C6.59499 13.6075 6.50874 13.6487 6.46624 13.7262C6.45124 13.755 6.44249 13.7875 6.44874 13.82C6.45874 13.8675 6.50249 13.9012 6.54624 13.9225C6.63374 13.965 6.73249 13.9762 6.82874 13.9775C7.02749 13.98 7.22499 13.9425 7.42124 13.905C7.47999 13.8937 7.53999 13.8825 7.59249 13.8537C7.64499 13.825 7.68999 13.7762 7.69874 13.7175C7.71124 13.6387 7.65499 13.5625 7.58624 13.525C7.34874 13.395 6.91749 13.4925 6.67874 13.5775Z" fill="#94D1E0"/>
<path d="M6.25125 10.5251C6.365 10.5363 6.485 10.5263 6.58125 10.4651C6.6775 10.4038 6.73875 10.2788 6.7 10.1713C6.68 10.1151 6.63625 10.0701 6.59375 10.0276C6.5 9.93505 6.40625 9.84255 6.31375 9.75005C6.21 9.6463 6.10625 9.5438 5.99375 9.45005C5.82 9.30505 5.58625 9.1688 5.3575 9.27505C5.1625 9.36505 5.11625 9.54255 5.2025 9.7288C5.38625 10.1201 5.81375 10.4801 6.25125 10.5251Z" fill="#FFFF8D"/>
</svg>
