<svg width="16" height="16" viewBox="0 0 16 16" fill="none" xmlns="http://www.w3.org/2000/svg">
<path d="M2.4375 15.5C1.99063 15.5 1.60821 15.3369 1.29025 15.0108C0.972294 14.6847 0.813044 14.2922 0.812502 13.8333V3C0.582294 3 0.389461 2.92 0.234003 2.76C0.0785445 2.6 0.000544468 2.40222 2.80172e-06 2.16667C-0.000538865 1.93111 0.0774612 1.73333 0.234003 1.57333C0.390544 1.41333 0.583378 1.33333 0.812502 1.33333H4.0625C4.0625 1.09722 4.1405 0.899444 4.2965 0.74C4.4525 0.580556 4.64533 0.500556 4.875 0.5H8.125C8.35521 0.5 8.54831 0.58 8.70431 0.74C8.86031 0.9 8.93804 1.09778 8.9375 1.33333H12.1875C12.4177 1.33333 12.6108 1.41333 12.7668 1.57333C12.9228 1.73333 13.0005 1.93111 13 2.16667C12.9995 2.40222 12.9215 2.60028 12.766 2.76083C12.6105 2.92139 12.4177 3.00111 12.1875 3V13.8333C12.1875 14.2917 12.0285 14.6842 11.7106 15.0108C11.3926 15.3375 11.0099 15.5006 10.5625 15.5H2.4375ZM4.875 12.1667C5.10521 12.1667 5.29831 12.0867 5.45431 11.9267C5.61031 11.7667 5.68804 11.5689 5.6875 11.3333V5.5C5.6875 5.26389 5.6095 5.06611 5.4535 4.90667C5.2975 4.74722 5.10467 4.66722 4.875 4.66667C4.64533 4.66611 4.4525 4.74611 4.2965 4.90667C4.1405 5.06722 4.0625 5.265 4.0625 5.5V11.3333C4.0625 11.5694 4.1405 11.7675 4.2965 11.9275C4.4525 12.0875 4.64533 12.1672 4.875 12.1667ZM8.125 12.1667C8.35521 12.1667 8.54831 12.0867 8.70431 11.9267C8.86031 11.7667 8.93804 11.5689 8.9375 11.3333V5.5C8.9375 5.26389 8.8595 5.06611 8.7035 4.90667C8.5475 4.74722 8.35467 4.66722 8.125 4.66667C7.89533 4.66611 7.7025 4.74611 7.5465 4.90667C7.3905 5.06722 7.3125 5.265 7.3125 5.5V11.3333C7.3125 11.5694 7.3905 11.7675 7.5465 11.9275C7.7025 12.0875 7.89533 12.1672 8.125 12.1667Z" fill="white"/>
</svg>
