<svg width="12" height="12" viewBox="0 0 12 12" fill="none" xmlns="http://www.w3.org/2000/svg">
<path opacity="0.5" d="M6.916 10.7622C8.479 10.4492 10.5 9.32466 10.5 6.41716C10.5 3.77166 8.5635 2.00966 7.171 1.20016C6.8615 1.02016 6.5 1.25666 6.5 1.61416V2.52816C6.5 3.24916 6.197 4.56516 5.355 5.11266C4.925 5.39216 4.46 4.97366 4.408 4.46366L4.365 4.04466C4.315 3.55766 3.819 3.26216 3.43 3.55916C2.7305 4.09166 2 5.02666 2 6.41666C2 9.97216 4.6445 10.8617 5.9665 10.8617C6.04383 10.8617 6.1245 10.8592 6.2085 10.8542C6.4315 10.8262 6.2085 10.9037 6.916 10.7617" fill="#2D69FF"/>
<path d="M4 9.14773C4 10.4275 5.0555 10.8232 5.7085 10.8779C5.9315 10.8505 5.7085 10.9262 6.416 10.7875C6.9355 10.6083 7.5 10.1481 7.5 9.14773C7.5 8.51419 7.0905 8.12293 6.77 7.93975C6.672 7.88358 6.558 7.95441 6.5495 8.0648C6.5215 8.41552 6.1765 8.69492 5.942 8.42822C5.7345 8.19278 5.647 7.84841 5.647 7.62811V7.33991C5.647 7.16699 5.4685 7.05172 5.3155 7.14062C4.7475 7.46936 4 8.14637 4 9.14773Z" fill="#2D69FF"/>
</svg>
