<svg width="24" height="24" viewBox="0 0 24 24" fill="none" xmlns="http://www.w3.org/2000/svg">
<path fill-rule="evenodd" clip-rule="evenodd" d="M7.18631 9.45947C6.07203 9.45947 5.00231 9.88804 4.19317 10.6526C3.79254 11.0335 3.47348 11.4918 3.25535 11.9997C3.03722 12.5076 2.92458 13.0545 2.92426 13.6073C2.92394 14.1601 3.03594 14.7072 3.25348 15.2153C3.47102 15.7235 3.78955 16.1822 4.18974 16.5635L11.4017 23.5749C11.5617 23.7304 11.7761 23.8174 11.9992 23.8174C12.2223 23.8174 12.4366 23.7304 12.5966 23.5749L19.8103 16.5635C20.2102 16.1822 20.5285 15.7236 20.7459 15.2156C20.9633 14.7076 21.0752 14.1607 21.0749 13.6082C21.0746 13.0556 20.962 12.5089 20.7441 12.0011C20.5261 11.4934 20.2072 11.0352 19.8069 10.6543C18.999 9.88743 17.9276 9.45987 16.8137 9.45987C15.6998 9.45987 14.6285 9.88743 13.8206 10.6543L13.8035 10.6698L12 12.4732L10.1949 10.6698L10.1777 10.6526C9.36973 9.8872 8.2993 9.46026 7.18631 9.45947Z" fill="#8FBFFA"/>
<path fill-rule="evenodd" clip-rule="evenodd" d="M12 0.183472C10.9475 0.183472 9.93805 0.601588 9.1938 1.34584C8.44955 2.09009 8.03143 3.09951 8.03143 4.15204C8.03143 5.20457 8.44955 6.214 9.1938 6.95825C9.93805 7.7025 10.9475 8.12061 12 8.12061C13.0525 8.12061 14.062 7.7025 14.8062 6.95825C15.5505 6.214 15.9686 5.20457 15.9686 4.15204C15.9686 3.09951 15.5505 2.09009 14.8062 1.34584C14.062 0.601588 13.0525 0.183472 12 0.183472Z" fill="#2859C5"/>
</svg>
