<svg width="24" height="24" viewBox="0 0 24 24" fill="none" xmlns="http://www.w3.org/2000/svg">
<g clip-path="url(#clip0_127_364)">
<path d="M7.01438 7.86558C5.19375 10.2056 5.22563 14.3625 7.5525 16.4231C10.1944 18.7612 13.9125 18.7368 16.2506 16.5862C19.0538 14.0062 18.8925 9.71245 16.4138 7.28058C13.9219 4.83558 9.46875 4.70808 7.01438 7.86558Z" fill="#FCC11A"/>
<path d="M9.93751 7.06315C9.21751 6.7444 8.43001 7.61252 8.08688 8.20502C7.74376 8.7994 7.42501 9.96377 8.15626 10.2619C8.88751 10.5581 9.41251 10.0556 9.93938 9.18752C10.4625 8.3194 10.7606 7.42877 9.93751 7.06315Z" fill="#FEE269"/>
<path d="M11.8125 3.80062C11.6381 4.12687 11.6963 4.37812 12.0431 4.46062C12.39 4.54312 14.5481 4.89375 14.73 4.905C14.9944 4.92187 15.0919 4.72312 15.06 4.4925C15.0263 4.26187 14.4994 1.03125 14.4506 0.734997C14.4019 0.438747 14.0888 0.142497 13.7906 0.538122C13.4925 0.933747 11.9438 3.555 11.8125 3.80062ZM17.4 6.04312C17.0606 6.14812 17.07 6.35625 17.2519 6.62062C17.4338 6.885 18.6863 8.79562 18.8006 8.92875C18.9169 9.06 19.1138 9.09375 19.2788 8.895C19.4438 8.69812 21.5025 5.81062 21.6525 5.63062C21.9 5.33437 21.7519 5.02125 21.3731 5.11875C21.0844 5.19562 17.6138 5.9775 17.4 6.04312ZM19.9875 11.5987C19.7438 11.46 19.4269 11.4994 19.3444 11.8125C19.2619 12.1256 18.9 14.4 18.8663 14.5987C18.8325 14.7975 18.9825 14.9944 19.2281 14.9456C19.4738 14.8969 22.875 14.3925 23.1019 14.3362C23.4975 14.2369 23.6288 13.8412 23.2181 13.545C22.9519 13.3519 20.2181 11.73 19.9875 11.5987ZM17.2669 16.9875C17.5294 16.8469 17.7619 16.9537 17.8275 17.2519C17.8931 17.5481 18.6188 20.5819 18.735 21.1425C18.7931 21.4237 18.4706 21.6544 18.2081 21.4894C17.9438 21.3244 15.0788 19.3275 14.895 19.1644C14.6306 18.9337 14.8144 18.6937 14.9438 18.5719C15.2063 18.3225 17.0194 17.1206 17.2669 16.9875ZM9.28876 18.6525C8.95689 18.6206 8.85939 18.9169 8.91001 19.1794C8.95876 19.4437 9.45376 22.7869 9.48751 23.0362C9.53626 23.3981 9.91689 23.5481 10.1625 23.1844C10.4081 22.8206 12.1031 20.1094 12.24 19.8544C12.4875 19.3931 12.3056 19.2937 12.0581 19.1794C11.8125 19.065 9.63564 18.6862 9.28876 18.6525ZM4.54314 14.8125C4.77376 14.4337 5.07001 14.5331 5.28564 14.895C5.43189 15.1425 6.66939 16.8075 6.78564 16.9875C6.90189 17.1694 6.95064 17.5144 6.58876 17.5969C6.22314 17.6812 3.27376 18.4556 2.81251 18.5381C2.35126 18.6206 2.08689 18.2587 2.38314 17.8631C2.55564 17.6306 4.41189 15.0281 4.54314 14.8125ZM3.91689 11.9437C4.33876 12.1312 4.53751 12.0637 4.62564 11.7619C4.74189 11.3662 5.08689 9.55312 5.10376 9.14062C5.11501 8.8725 5.00439 8.61375 4.59189 8.67937C4.17939 8.745 1.21314 9.15937 0.83439 9.29062C0.393765 9.44437 0.42564 9.92812 0.71814 10.0819C1.06501 10.2637 3.61876 11.8125 3.91689 11.9437ZM9.04314 5.02125C9.28126 4.83187 9.20814 4.56 8.99439 4.41187C8.78064 4.26375 6.13314 2.34937 5.79751 2.08687C5.50126 1.85625 5.13751 1.93875 5.23689 2.46562C5.30814 2.84437 6.15189 6.15937 6.21001 6.38812C6.27564 6.6525 6.47439 6.78375 6.70501 6.61875C6.93189 6.45562 8.79564 5.22 9.04314 5.02125Z" fill="#FFA722"/>
</g>
<defs>
<clipPath id="clip0_127_364">
<rect width="24" height="24" fill="white"/>
</clipPath>
</defs>
</svg>
