<svg width="28" height="28" viewBox="0 0 28 28" fill="none" xmlns="http://www.w3.org/2000/svg">
<path d="M5.25 7.875H22.75C23.6783 7.875 24.5685 8.24375 25.2249 8.90013C25.8813 9.5565 26.25 10.4467 26.25 11.375V16.625C26.25 17.5533 25.8813 18.4435 25.2249 19.0999C24.5685 19.7563 23.6783 20.125 22.75 20.125H5.25C4.32174 20.125 3.4315 19.7563 2.77513 19.0999C2.11875 18.4435 1.75 17.5533 1.75 16.625V11.375C1.75 10.4467 2.11875 9.5565 2.77513 8.90013C3.4315 8.24375 4.32174 7.875 5.25 7.875ZM5.25 9.625C4.78587 9.625 4.34075 9.80937 4.01256 10.1376C3.68437 10.4658 3.5 10.9109 3.5 11.375V16.625C3.5 17.0891 3.68437 17.5342 4.01256 17.8624C4.34075 18.1906 4.78587 18.375 5.25 18.375H22.75C23.2141 18.375 23.6592 18.1906 23.9874 17.8624C24.3156 17.5342 24.5 17.0891 24.5 16.625V11.375C24.5 10.9109 24.3156 10.4658 23.9874 10.1376C23.6592 9.80937 23.2141 9.625 22.75 9.625H5.25ZM1.75 3.5C1.75 3.26794 1.84219 3.04538 2.00628 2.88128C2.17038 2.71719 2.39294 2.625 2.625 2.625H25.375C25.6071 2.625 25.8296 2.71719 25.9937 2.88128C26.1578 3.04538 26.25 3.26794 26.25 3.5C26.25 3.73206 26.1578 3.95462 25.9937 4.11872C25.8296 4.28281 25.6071 4.375 25.375 4.375H2.625C2.39294 4.375 2.17038 4.28281 2.00628 4.11872C1.84219 3.95462 1.75 3.73206 1.75 3.5ZM1.75 24.5C1.75 24.2679 1.84219 24.0454 2.00628 23.8813C2.17038 23.7172 2.39294 23.625 2.625 23.625H25.375C25.6071 23.625 25.8296 23.7172 25.9937 23.8813C26.1578 24.0454 26.25 24.2679 26.25 24.5C26.25 24.7321 26.1578 24.9546 25.9937 25.1187C25.8296 25.2828 25.6071 25.375 25.375 25.375H2.625C2.39294 25.375 2.17038 25.2828 2.00628 25.1187C1.84219 24.9546 1.75 24.7321 1.75 24.5Z" fill="#2D69FF" stroke="#2D69FF"/>
</svg>
